<svg id="Carrito" xmlns="http://www.w3.org/2000/svg" viewBox="0 0 30 25"><defs><style>.cls-1{fill:none;stroke:#286090;stroke-linecap:round;stroke-linejoin:round;stroke-width:1.21px;}.cls-2{fill:#286090;}</style></defs><title>Mesa de trabajo 1</title><polyline class="cls-1" points="7.35 5.8 25.32 5.8 22.5 16.29 9.95 16.29 6.11 2.45 2.67 2.45"/><line class="cls-1" x1="8.05" y1="9.42" x2="24.31" y2="9.42"/><line class="cls-1" x1="9.04" y1="12.85" x2="23.43" y2="12.85"/><line class="cls-1" x1="13.38" y1="5.89" x2="13.38" y2="16.22"/><line class="cls-1" x1="18.8" y1="5.8" x2="18.8" y2="16.29"/><path class="cls-2" d="M11.66,18.74a1.3,1.3,0,1,1-1.3,1.3,1.3,1.3,0,0,1,1.3-1.3m0-1.21A2.51,2.51,0,1,0,14.18,20a2.51,2.51,0,0,0-2.51-2.51Z"/><path class="cls-2" d="M20.65,18.74a1.3,1.3,0,1,1-1.3,1.3,1.3,1.3,0,0,1,1.3-1.3m0-1.21A2.51,2.51,0,1,0,23.17,20a2.51,2.51,0,0,0-2.51-2.51Z"/></svg>