<svg xmlns="http://www.w3.org/2000/svg" viewBox="0 0 100 100"><defs><style>.cls-1{fill:#5b5b5b;}</style></defs><title>Mesa de trabajo 4</title><g id="Piezas"><g id="surface1"><path class="cls-1" d="M33.76,19.16a.68.68,0,0,0-.67.57l-.66,4.06a11.57,11.57,0,0,0-2.27.93l-3.35-2.39a.69.69,0,0,0-.88.07L23.28,25a.69.69,0,0,0-.08.88l2.36,3.37a11.41,11.41,0,0,0-1,2.29l-4,.67A.68.68,0,0,0,20,33v3.75a.68.68,0,0,0,.56.67l4,.72a11.77,11.77,0,0,0,1,2.29l-2.39,3.34a.68.68,0,0,0,.07.88l2.65,2.65a.68.68,0,0,0,.87.08L30.13,45a11.44,11.44,0,0,0,2.28.94L33.09,50a.68.68,0,0,0,.67.57h3.75a.68.68,0,0,0,.67-.57l.72-4.08a11.37,11.37,0,0,0,2.27-1l3.4,2.39a.68.68,0,0,0,.87-.08l2.65-2.66a.68.68,0,0,0,.07-.88l-2.43-3.37A11.47,11.47,0,0,0,46.66,38l4.1-.72a.68.68,0,0,0,.56-.67V33a.69.69,0,0,0-.57-.67l-4.1-.67a11.31,11.31,0,0,0-.93-2.25L48.13,26a.68.68,0,0,0-.08-.88L45.4,22.43a.68.68,0,0,0-.88-.07l-3.36,2.42a11.29,11.29,0,0,0-2.27-1l-.71-4.08a.68.68,0,0,0-.67-.56Zm.58,1.36H37l.68,3.88a.69.69,0,0,0,.51.55A10,10,0,0,1,41,26.11a.68.68,0,0,0,.75,0l3.19-2.29,1.84,1.84L44.47,28.9a.7.7,0,0,0,0,.75,10.19,10.19,0,0,1,1.15,2.77.68.68,0,0,0,.55.51l3.89.64v2.6l-3.9.68a.69.69,0,0,0-.54.51,10.19,10.19,0,0,1-1.15,2.78.68.68,0,0,0,0,.75l2.3,3.2-1.83,1.84-3.23-2.27a.69.69,0,0,0-.74,0,10.21,10.21,0,0,1-2.78,1.17.69.69,0,0,0-.51.54L37,49.16h-2.6l-.64-3.86a.67.67,0,0,0-.51-.55,10.14,10.14,0,0,1-2.8-1.16.69.69,0,0,0-.74,0l-3.21,2.25L24.64,44l2.27-3.17a.68.68,0,0,0,0-.75,10.14,10.14,0,0,1-1.17-2.81.68.68,0,0,0-.54-.51l-3.84-.68v-2.6l3.84-.64a.69.69,0,0,0,.55-.5,10.22,10.22,0,0,1,1.16-2.81.67.67,0,0,0,0-.74l-2.24-3.2,1.84-1.84L29.69,26a.68.68,0,0,0,.75,0A10,10,0,0,1,33.2,25a.69.69,0,0,0,.51-.56Zm1.32,8.86a5.46,5.46,0,1,0,5.46,5.46h0A5.47,5.47,0,0,0,35.66,29.38Zm0,1.36a4.09,4.09,0,1,1-4.09,4.09h0a4.08,4.08,0,0,1,4.08-4.08h0Z"/></g><g id="surface1-2"><path class="cls-1" d="M48.22,54.62a.66.66,0,0,0,.38-.09l5-2.88a.68.68,0,0,0,.32-.68l-.23-1.49,9.25-9.25.34.34a1.91,1.91,0,0,0,2.7,0l0,0,.49-.47a1.85,1.85,0,0,0,.32-2L68,37a3.19,3.19,0,0,0,2.49-.85L78.8,27.8a4.39,4.39,0,0,0,0-6.07h0a4.31,4.31,0,0,0-6.09,0L64.4,30.06a3.12,3.12,0,0,0-.85,2.49L62.4,33.68a1.85,1.85,0,0,0-2,.32l-.47.49a1.93,1.93,0,0,0,0,2.73h0l.34.34L51,46.82l-1.49-.23a.68.68,0,0,0-.68.32l-2.88,5a.68.68,0,0,0,.1.83l1.7,1.7a.71.71,0,0,0,.38.19Zm-.81-2.52L49.78,48l1.39.21a.69.69,0,0,0,.58-.19l9.48-9.48.75.75-9.49,9.51a.69.69,0,0,0-.19.58l.21,1.39L48.4,53.1ZM64.23,39.62l-3.35-3.34a.62.62,0,0,1,0-.81l.49-.47a.57.57,0,0,1,.77,0,.68.68,0,0,0,.94,0l1.55-1.56a.68.68,0,0,0,.19-.66,1.77,1.77,0,0,1,.49-1.66l8.33-8.31a2.86,2.86,0,0,1,4-.09l.09.09a3,3,0,0,1,0,4.13l-8.31,8.33a2,2,0,0,1-1.73.49.68.68,0,0,0-.6.19L65.57,37.5a.68.68,0,0,0,0,.94.57.57,0,0,1,0,.77l-.47.49a.63.63,0,0,1-.81,0ZM75.69,25.79l-1-1L66.53,33l1,1Z"/></g><g id="surface1-3"><path class="cls-1" d="M68.19,62.84l.77-.77a7.43,7.43,0,0,0,3.35,1,4.92,4.92,0,0,0,3.6-1.49,11.72,11.72,0,0,0,2.47-4,7.46,7.46,0,0,0,.43-4.84.68.68,0,0,0-1.13-.26l-3.62,3.6a.7.7,0,0,1-.87,0h0L69.61,52.5a.7.7,0,0,1,0-.92L73.18,48a.68.68,0,0,0-.26-1.13,4.86,4.86,0,0,0-1.73-.23h-.62a10.73,10.73,0,0,0-2.47.62A11.75,11.75,0,0,0,64,49.69a5,5,0,0,0-1.53,3.6,7,7,0,0,0,1,3.35L62,58.26a.71.71,0,0,0,1,1h0l1.92-1.92a.68.68,0,0,0,.08-.85,6,6,0,0,1-1.08-3.11A3.55,3.55,0,0,1,65,50.7a11,11,0,0,1,3.6-2.15,8,8,0,0,1,2.58-.49l-2.58,2.56h0a2,2,0,0,0,0,2.77L72.2,57h0A2,2,0,0,0,75,57l2.58-2.58a7.93,7.93,0,0,1-.49,2.6A10.83,10.83,0,0,1,75,60.65a3.44,3.44,0,0,1-2.62,1.09,6.57,6.57,0,0,1-3.17-1.07.69.69,0,0,0-.83.11l-1.12,1.08m-5.1-3.76L53.37,67A7.37,7.37,0,0,0,52,66.85a7,7,0,1,0,6.95,7v0a6,6,0,0,0-.23-1.47l9.63-9.63-1-1-9.87,9.89a.68.68,0,0,0-.17.72,4,4,0,0,1,.23,1.47A5.59,5.59,0,1,1,52,68.2h0a6.18,6.18,0,0,1,1.47.19.69.69,0,0,0,.64-.19l9-9.15M52.7,69.86h-.11l-3.2.89a.68.68,0,0,0-.47.47L48,74.42a.68.68,0,0,0,.17.68l2.39,2.39a.68.68,0,0,0,.66.17l3.28-.9a.68.68,0,0,0,.49-.49l.81-3.2a.68.68,0,0,0-.17-.66L53.28,70A.69.69,0,0,0,52.7,69.86Zm-.13,1.45,1.83,1.83-.62,2.45-2.49.66-1.83-1.83L50.13,72Z"/></g><g id="surface1-4"><path class="cls-1" d="M43.09,58.23H40.46v0c-.23-.35-.49-.74-.8-1.15a9.12,9.12,0,0,0-1.43-1.52,3,3,0,0,0-1.86-.79H25.45a4.1,4.1,0,0,0-4.08,4.12V69.83A4.11,4.11,0,0,0,25.45,74H36.37a3,3,0,0,0,1.86-.79,9.2,9.2,0,0,0,1.43-1.52,13.64,13.64,0,0,0,.8-1.15v.05h2.63Zm-7.41-1.36H26.82v1.36h8.86v1.36H26.82V61h8.86v1.36H26.82v1.36h8.86V65H26.82V66.4h8.86v1.36H26.82v1.36h8.86v1.36H26.82v1.36h8.86v.68H26.14V56.19h9.54ZM24.77,72.46a2.73,2.73,0,0,1-2-2.63V59a2.73,2.73,0,0,1,2-2.63Zm12.6-15.78A8.27,8.27,0,0,1,38.57,58a14.76,14.76,0,0,1,1.2,1.83V69a14.76,14.76,0,0,1-1.2,1.83,8.15,8.15,0,0,1-1.21,1.29,2.88,2.88,0,0,1-.32.23V56.45A2.88,2.88,0,0,1,37.37,56.68Z"/></g></g></svg>