<svg xmlns="http://www.w3.org/2000/svg" viewBox="0 0 30 30"><defs><style>.cls-1{fill:#286090;}.cls-2,.cls-4{fill:none;stroke:#000;stroke-miterlimit:10;}.cls-2{stroke-width:0.05px;}.cls-3{fill:#fff;}.cls-4{stroke-width:0.05px;}</style></defs><title>Mesa de trabajo 3</title><g id="Icono"><circle class="cls-1" cx="15" cy="15" r="15"/><path class="cls-2" d="M19.66,25.91a1.46,1.46,0,0,1-2.91.16,1.41,1.41,0,0,1,0-.16,1.46,1.46,0,0,1,2.92,0Z"/><path class="cls-3" d="M20.39,25h0l-3.62-10.3h-3L16,26.3h0A2.31,2.31,0,1,0,20.39,25ZM18.2,27.37a1.46,1.46,0,0,1-1.45-1.3,1.41,1.41,0,0,1,0-.16,1.46,1.46,0,1,1,1.46,1.46Z"/><path class="cls-2" d="M19.66,25.91a1.46,1.46,0,0,1-2.91.16,1.41,1.41,0,0,1,0-.16,1.46,1.46,0,0,1,2.92,0Z"/><path class="cls-3" d="M19.91,3.84v.9H8.56v-.9a.57.57,0,0,1,.57-.57h10.2A.57.57,0,0,1,19.91,3.84Z"/><rect class="cls-3" x="8.56" y="5.2" width="11.34" height="1.02"/><rect class="cls-3" x="8.56" y="6.67" width="11.34" height="1.02"/><path class="cls-3" d="M19.91,8.14v5.31a13.32,13.32,0,0,1-.16,2,.71.71,0,0,1-.7.7.69.69,0,0,1-.68-.58h0l-.26-1h0l0-.08a.7.7,0,0,0-.65-.48H11a.7.7,0,0,0-.65.48l0,.08h0l-.26,1h0a.69.69,0,0,1-.68.58.73.73,0,0,1-.7-.7,12.9,12.9,0,0,1-.16-2V8.14Z"/><line class="cls-4" x1="10.52" y1="14.02" x2="10.52" y2="14.02"/></g></svg>