<?xml version="1.0" encoding="utf-8"?>
<!-- Generator: Adobe Illustrator 21.0.0, SVG Export Plug-In . SVG Version: 6.00 Build 0)  -->
<svg version="1.1" id="Capa_1" xmlns="http://www.w3.org/2000/svg" xmlns:xlink="http://www.w3.org/1999/xlink" x="0px" y="0px"
	 viewBox="0 0 500 500" style="enable-background:new 0 0 500 500;" xml:space="preserve">
<style type="text/css">
	.st0{fill:#5B5B5B;}
</style>
<g id="surface1">
	<path class="st0" d="M216,136c-12.6,0-24.4,5.9-32,16l-36.5,48.5l-66,11.2C62.3,215,48,231.5,48,251v45c0,13.2,10.8,24,24,24h16.7
		c3.8,22.7,23.5,40,47.3,40c23.7,0,43.4-17.3,47.3-40h129.5c3.8,22.7,23.5,40,47.3,40c23.7,0,43.4-17.3,47.3-40H424
		c13.2,0,24-10.8,24-24v-52.2c0-19.8-14.6-36.7-34.2-39.5l-25-3.7l-28.5-45.8c-7.3-11.7-20.2-18.7-34-18.7H216z M346.5,163.3
		l23,36.8H280v-48h46.2C334.5,152,342.1,156.2,346.5,163.3z M264,200h-96l28.8-38.5c4.5-6,11.7-9.5,19.2-9.5h48V200z M411.5,220
		c11.9,1.7,20.5,11.7,20.5,23.8V296c0,4.5-3.5,8-8,8h-16.8c-3.8-22.7-23.5-40-47.3-40c-23.7,0-43.4,17.3-47.3,40H183.3
		c-3.8-22.7-23.5-40-47.3-40c-23.7,0-43.4,17.3-47.3,40H72c-4.5,0-8-3.5-8-8v-45c0-11.8,8.4-21.6,20-23.5l69.3-11.5h229.5L411.5,220
		z M392,312c0,17.8-14.2,32-32,32c-17.8,0-32-14.2-32-32c0-17.8,14.2-32,32-32C377.8,280,392,294.2,392,312z M168,312
		c0,17.8-14.2,32-32,32c-17.8,0-32-14.2-32-32c0-17.8,14.2-32,32-32C153.8,280,168,294.2,168,312z"/>
</g>
</svg>
