<svg xmlns="http://www.w3.org/2000/svg" viewBox="0 0 50 50"><defs><style>.cls-1{fill:#286090;}.cls-2,.cls-4{fill:none;stroke:#000;stroke-miterlimit:10;}.cls-2{stroke-width:0.09px;}.cls-3{fill:#fff;}.cls-4{stroke-width:0.09px;}</style></defs><title>logo</title><g id="Capa_2" data-name="Capa 2"><circle class="cls-1" cx="25" cy="25" r="25"/></g><g id="Capa_3" data-name="Capa 3"><path class="cls-2" d="M32.76,43.19a2.43,2.43,0,0,1-4.84.26,2.35,2.35,0,0,1,0-.26,2.43,2.43,0,0,1,4.86,0Z"/><path class="cls-3" d="M34,41.7h0l-6-17.17h-5l3.71,19.29h0A3.86,3.86,0,1,0,34,41.7Zm-3.65,3.92a2.43,2.43,0,0,1-2.42-2.17,2.35,2.35,0,0,1,0-.26,2.43,2.43,0,1,1,2.43,2.43Z"/><path class="cls-2" d="M32.76,43.19a2.43,2.43,0,0,1-4.84.26,2.35,2.35,0,0,1,0-.26,2.43,2.43,0,0,1,4.86,0Z"/><path class="cls-3" d="M33.18,6.41v1.5H14.27V6.41a1,1,0,0,1,1-1h17A1,1,0,0,1,33.18,6.41Z"/><rect class="cls-3" x="14.27" y="8.66" width="18.9" height="1.69"/><rect class="cls-3" x="14.27" y="11.12" width="18.9" height="1.69"/><path class="cls-3" d="M33.18,13.57v8.86a22.19,22.19,0,0,1-.27,3.33,1.18,1.18,0,0,1-1.16,1.16,1.16,1.16,0,0,1-1.14-1h0l-.44-1.64h0a1,1,0,0,0,0-.13,1.17,1.17,0,0,0-1.08-.8H18.39a1.17,1.17,0,0,0-1.08.8,1,1,0,0,0,0,.13h0l-.44,1.64h0a1.16,1.16,0,0,1-1.14,1,1.21,1.21,0,0,1-1.16-1.16,21.5,21.5,0,0,1-.27-3.33V13.57Z"/><line class="cls-4" x1="17.53" y1="23.37" x2="17.53" y2="23.37"/></g></svg>