<svg id="Capa_1" data-name="Capa 1" xmlns="http://www.w3.org/2000/svg" viewBox="0 0 100 100"><defs><style>.cls-1{fill:#5b5b5b;}</style></defs><title>Mesa de trabajo 1</title><g id="surface1"><path class="cls-1" d="M33.78,19.2a.68.68,0,0,0-.67.57l-.66,4.06a11.57,11.57,0,0,0-2.27.93l-3.35-2.39a.69.69,0,0,0-.88.07l-2.65,2.65a.69.69,0,0,0-.08.88l2.36,3.37a11.41,11.41,0,0,0-1,2.29l-4,.67A.68.68,0,0,0,20,33v3.75a.68.68,0,0,0,.56.67l4,.72a11.77,11.77,0,0,0,1,2.29l-2.39,3.34a.68.68,0,0,0,.07.88l2.65,2.65a.68.68,0,0,0,.87.08L30.15,45a11.44,11.44,0,0,0,2.28.94L33.11,50a.68.68,0,0,0,.67.57h3.75A.68.68,0,0,0,38.2,50l.72-4.08a11.37,11.37,0,0,0,2.27-1l3.4,2.39a.68.68,0,0,0,.87-.08l2.65-2.66a.68.68,0,0,0,.07-.88l-2.43-3.37a11.47,11.47,0,0,0,.93-2.26l4.1-.72a.68.68,0,0,0,.56-.67V33a.69.69,0,0,0-.57-.67l-4.1-.67a11.31,11.31,0,0,0-.93-2.25L48.15,26a.68.68,0,0,0-.08-.88l-2.65-2.65a.68.68,0,0,0-.88-.07l-3.36,2.42a11.29,11.29,0,0,0-2.27-.95l-.71-4.08a.68.68,0,0,0-.67-.56Zm.58,1.36H37l.68,3.88a.69.69,0,0,0,.51.55,10,10,0,0,1,2.79,1.16.68.68,0,0,0,.75,0l3.19-2.29,1.84,1.84-2.27,3.24a.7.7,0,0,0,0,.75,10.19,10.19,0,0,1,1.15,2.77.68.68,0,0,0,.55.51l3.89.64v2.6l-3.9.68a.69.69,0,0,0-.54.51,10.19,10.19,0,0,1-1.15,2.78.68.68,0,0,0,0,.75l2.3,3.2-1.83,1.84-3.23-2.27a.69.69,0,0,0-.74,0,10.21,10.21,0,0,1-2.78,1.17.69.69,0,0,0-.51.54L37,49.2h-2.6l-.64-3.86a.67.67,0,0,0-.51-.55,10.14,10.14,0,0,1-2.8-1.16.69.69,0,0,0-.74,0l-3.21,2.25-1.84-1.84,2.27-3.17a.68.68,0,0,0,0-.75,10.14,10.14,0,0,1-1.17-2.81.68.68,0,0,0-.54-.51l-3.84-.68v-2.6l3.84-.64a.69.69,0,0,0,.55-.5,10.22,10.22,0,0,1,1.16-2.81.67.67,0,0,0,0-.74l-2.24-3.2,1.84-1.84,3.18,2.27a.68.68,0,0,0,.75,0A10,10,0,0,1,33.22,25a.69.69,0,0,0,.51-.56Zm1.32,8.86a5.46,5.46,0,1,0,5.46,5.46A5.47,5.47,0,0,0,35.68,29.42Zm0,1.36a4.09,4.09,0,1,1-4.09,4.09A4.08,4.08,0,0,1,35.68,30.79Z"/></g><g id="surface1-2" data-name="surface1"><path class="cls-1" d="M48.24,54.66a.66.66,0,0,0,.38-.09l5-2.88a.68.68,0,0,0,.32-.68l-.23-1.49,9.25-9.25.34.34a1.91,1.91,0,0,0,2.73,0l.49-.47a1.85,1.85,0,0,0,.32-2L68,37a3.19,3.19,0,0,0,2.49-.85l8.33-8.31a4.39,4.39,0,0,0,0-6.07v0a4.31,4.31,0,0,0-6.09,0l-8.31,8.33a3.12,3.12,0,0,0-.85,2.49l-1.15,1.13a1.85,1.85,0,0,0-2,.32l-.47.49a1.93,1.93,0,0,0,0,2.73l.34.34L51,46.86l-1.49-.23a.68.68,0,0,0-.68.32l-2.88,5a.68.68,0,0,0,.1.83l1.7,1.7a.71.71,0,0,0,.38.19Zm-.81-2.52L49.8,48l1.39.21a.69.69,0,0,0,.58-.19l9.48-9.48.75.75L52.51,48.8a.69.69,0,0,0-.19.58l.21,1.39-4.11,2.37ZM64.25,39.66,60.9,36.32a.62.62,0,0,1,0-.81l.49-.47a.57.57,0,0,1,.77,0,.68.68,0,0,0,.94,0l1.55-1.56a.68.68,0,0,0,.19-.66,1.77,1.77,0,0,1,.49-1.66l8.33-8.31a2.86,2.86,0,0,1,4.13,0,3,3,0,0,1,0,4.13l-8.31,8.33a2,2,0,0,1-1.73.49.68.68,0,0,0-.6.19l-1.56,1.55a.68.68,0,0,0,0,.94.57.57,0,0,1,0,.77l-.47.49a.63.63,0,0,1-.81,0ZM75.71,25.83l-1-1L66.55,33l1,1Z"/></g><g id="surface1-3" data-name="surface1"><path class="cls-1" d="M68.21,62.88l.77-.77a7.43,7.43,0,0,0,3.35,1,4.92,4.92,0,0,0,3.6-1.49,11.72,11.72,0,0,0,2.47-4,7.46,7.46,0,0,0,.43-4.84.68.68,0,0,0-1.13-.26l-3.62,3.6a.7.7,0,0,1-.87,0l0,0-3.58-3.58a.7.7,0,0,1,0-.92L73.2,48a.68.68,0,0,0-.26-1.13,4.86,4.86,0,0,0-1.73-.23l-.62,0a10.73,10.73,0,0,0-2.47.62,11.75,11.75,0,0,0-4.07,2.47,5,5,0,0,0-1.53,3.6,7,7,0,0,0,1,3.35L62,58.3a.68.68,0,1,0,1,1l1.92-1.92a.68.68,0,0,0,.08-.85,6,6,0,0,1-1.08-3.11A3.55,3.55,0,0,1,65,50.74a11,11,0,0,1,3.6-2.15,8,8,0,0,1,2.58-.49l-2.58,2.56,0,0a2,2,0,0,0,0,2.77l3.62,3.62,0,0a2,2,0,0,0,2.77,0l2.58-2.58a7.93,7.93,0,0,1-.49,2.6A10.83,10.83,0,0,1,75,60.69a3.44,3.44,0,0,1-2.62,1.09,6.57,6.57,0,0,1-3.17-1.07.69.69,0,0,0-.83.11L67.26,61.9m-5.1-3.76-8.77,8.91A7.37,7.37,0,0,0,52,66.89a7,7,0,1,0,6.95,7,6,6,0,0,0-.23-1.47l9.63-9.63-1-1-9.87,9.89a.68.68,0,0,0-.17.72,4,4,0,0,1,.23,1.47A5.59,5.59,0,1,1,52,68.25a6.18,6.18,0,0,1,1.47.19.69.69,0,0,0,.64-.19l9-9.15M52.72,69.9l-.11,0-3.2.89a.68.68,0,0,0-.47.47l-.89,3.2a.68.68,0,0,0,.17.68l2.39,2.39a.68.68,0,0,0,.66.17l3.28-.9a.68.68,0,0,0,.49-.49l.81-3.2a.68.68,0,0,0-.17-.66L53.3,70.09A.69.69,0,0,0,52.72,69.9Zm-.13,1.45,1.83,1.83-.62,2.45-2.49.66-1.83-1.83L50.15,72Z"/></g><g id="surface1-4" data-name="surface1"><path class="cls-1" d="M43.11,58.27H40.48v.05c-.23-.35-.49-.74-.8-1.15a9.12,9.12,0,0,0-1.43-1.52,3,3,0,0,0-1.86-.79H25.47A4.1,4.1,0,0,0,21.39,59V69.87A4.11,4.11,0,0,0,25.47,74H36.39a3,3,0,0,0,1.86-.79,9.2,9.2,0,0,0,1.43-1.52c.32-.41.58-.8.8-1.15v.05h2.63ZM35.7,56.91H26.84v1.36H35.7v1.36H26.84V61H35.7v1.36H26.84v1.36H35.7v1.36H26.84v1.36H35.7v1.36H26.84v1.36H35.7v1.36H26.84v1.36H35.7v.68H26.16V56.23H35.7ZM24.79,72.5a2.73,2.73,0,0,1-2-2.63V59a2.73,2.73,0,0,1,2-2.63ZM37.39,56.72A8.27,8.27,0,0,1,38.59,58a14.76,14.76,0,0,1,1.2,1.83V69a14.76,14.76,0,0,1-1.2,1.83,8.15,8.15,0,0,1-1.21,1.29,2.88,2.88,0,0,1-.32.23V56.49A2.88,2.88,0,0,1,37.39,56.72Z"/></g></svg>